<svg
                                        width="40" height="40" viewBox="0 0 40 40" fill="none"
                                        xmlns="http://www.w3.org/2000/svg">
                                        <rect x="39" y="39" width="38" height="38" rx="7" transform="rotate(-180 39 39)"
                                            fill="#02C076" stroke="#02C076" stroke-width="2"></rect>
                                        <g clip-path="url(#clip0_2232_2510)">
                                            <path
                                                d="M26.9419 13.7695C25.6279 13.1679 24.2407 12.7411 22.8158 12.5C22.6208 12.8486 22.4444 13.2072 22.2872 13.5744C20.7694 13.3457 19.2259 13.3457 17.708 13.5744C17.5508 13.2072 17.3744 12.8486 17.1795 12.5C15.7536 12.7431 14.3655 13.1709 13.0502 13.7726C10.4389 17.6361 9.73099 21.4036 10.0849 25.1176C11.6142 26.2475 13.3258 27.1067 15.1455 27.6581C15.5552 27.107 15.9178 26.5224 16.2293 25.9104C15.6376 25.6894 15.0665 25.4167 14.5226 25.0956C14.6657 24.9917 14.8057 24.8848 14.941 24.781C16.5237 25.5252 18.251 25.9111 20 25.9111C21.7489 25.9111 23.4763 25.5252 25.059 24.781C25.1958 24.8926 25.3358 24.9996 25.4774 25.0956C24.9324 25.4173 24.3603 25.6905 23.7675 25.912C24.0786 26.5237 24.4412 27.1078 24.8513 27.6581C26.6726 27.109 28.3855 26.2501 29.915 25.1192C30.3303 20.8121 29.2056 17.0792 26.9419 13.7695ZM16.6777 22.8335C15.6913 22.8335 14.8765 21.9384 14.8765 20.8373C14.8765 19.7361 15.663 18.8332 16.6745 18.8332C17.686 18.8332 18.4946 19.7361 18.4773 20.8373C18.4599 21.9384 17.6829 22.8335 16.6777 22.8335ZM23.3223 22.8335C22.3344 22.8335 21.5227 21.9384 21.5227 20.8373C21.5227 19.7361 22.3092 18.8332 23.3223 18.8332C24.3354 18.8332 25.1376 19.7361 25.1203 20.8373C25.103 21.9384 24.3275 22.8335 23.3223 22.8335Z"
                                                fill="#29282A"></path>
                                        </g>
                                        <defs>
                                            <clipPath id="clip0_2232_2510">
                                                <rect width="20" height="15.1581" fill="white"
                                                    transform="translate(10 12.5)"></rect>
                                            </clipPath>
                                        </defs>
                                    </svg>