<svg width="48" height="48" viewBox="0 0 48 48" fill="none" xmlns="http://www.w3.org/2000/svg"><path d="M16 40.5498C12.1 40.5498 8.79167 39.1915 6.075 36.4748C3.35833 33.7581 2 30.4498 2 26.5498C2 22.4498 3.45833 19.1081 6.375 16.5248C9.29167 13.9415 12.55 12.7665 16.15 12.9998L11.85 8.6998L14 6.5498L22 14.5498L14 22.5498L11.85 20.3998L16.3 15.9498C13.1333 15.8831 10.4583 16.8498 8.275 18.8498C6.09167 20.8498 5 23.4165 5 26.5498C5 29.5831 6.075 32.1748 8.225 34.3248C10.375 36.4748 12.9667 37.5498 16 37.5498H22V40.5498H16ZM26 40.5498V26.5498H44V40.5498H26ZM29 37.5498H41V29.5498H29V37.5498Z" fill="#02C076"></path><path d="M26 21.5498V7.5498H44V21.5498H26ZM29 18.5498H41V10.5498H29V18.5498Z" fill="#02C076"></path></svg>