<svg width="40" height="40" viewBox="0 0 40 40" fill="none"
                                        xmlns="http://www.w3.org/2000/svg">
                                        <rect x="39" y="39" width="38" height="38" rx="7" transform="rotate(-180 39 39)"
                                            fill="#02C076" stroke="#02C076" stroke-width="2"></rect>
                                        <path
                                            d="M29.0853 15.3089C28.8672 14.4877 28.2246 13.841 27.4088 13.6215C25.9299 13.2227 20 13.2227 20 13.2227C20 13.2227 14.0702 13.2227 12.5913 13.6215C11.7755 13.841 11.1329 14.4877 10.9148 15.3089C10.5186 16.7973 10.5186 19.9028 10.5186 19.9028C10.5186 19.9028 10.5186 23.0083 10.9148 24.4967C11.1329 25.3179 11.7755 25.9377 12.5913 26.1572C14.0702 26.556 20 26.556 20 26.556C20 26.556 25.9299 26.556 27.4088 26.1572C28.2246 25.9377 28.8672 25.3179 29.0853 24.4967C29.4815 23.0083 29.4815 19.9028 29.4815 19.9028C29.4815 19.9028 29.4815 16.7973 29.0853 15.3089ZM18.0606 22.7223V17.0832L23.0169 19.9029L18.0606 22.7223Z"
                                            fill="#29282A"></path>
                                    </svg>